# xmcd CD database file
#
# Track frame offsets:
#	150
#	13248
#	32526
#
# Disc length: 653 seconds
#
# Revision: 0
# Processed by: cddbd v1.5.1PL0 Copyright (c) Steve Scherf et al.
# Submitted via: CDex 1.51
#
DISCID=1a028b03
DTITLE=air code - Let's get a beautiful life !
DYEAR=2004
DGENRE=Rock
TTITLE0=Let's get a beautiful life ! (single ver.)
TTITLE1=The final love
TTITLE2=I'm just singing (single ver.)
EXTD=YEAR: 2004
EXTT0=
EXTT1=
EXTT2=
PLAYORDER=
